<?xml version="1.0" encoding="UTF-8" standalone="no"?>
<svg
   width="630"
   height="500"
   viewBox="0 0 166.68749 132.29167"
   version="1.1"
   id="svg8"
   inkscape:version="1.3 (0e150ed6c4, 2023-07-21)"
   sodipodi:docname="itchthumbnail.svg"
   xml:space="preserve"
   inkscape:export-filename="itchthumbnail.png"
   inkscape:export-xdpi="96"
   inkscape:export-ydpi="96"
   xmlns:inkscape="http://www.inkscape.org/namespaces/inkscape"
   xmlns:sodipodi="http://sodipodi.sourceforge.net/DTD/sodipodi-0.dtd"
   xmlns="http://www.w3.org/2000/svg"
   xmlns:svg="http://www.w3.org/2000/svg"
   xmlns:rdf="http://www.w3.org/1999/02/22-rdf-syntax-ns#"
   xmlns:cc="http://creativecommons.org/ns#"
   xmlns:dc="http://purl.org/dc/elements/1.1/"><defs
     id="defs2"><inkscape:path-effect
       effect="perspective-envelope"
       up_left_point="205.05209,85.989586"
       up_right_point="238.12501,72.760419"
       down_left_point="205.05209,152.13542"
       down_right_point="238.12501,138.90625"
       id="path-effect12"
       is_visible="true"
       lpeversion="1"
       deform_type="perspective"
       horizontal_mirror="false"
       vertical_mirror="false"
       overflow_perspective="false" /><inkscape:path-effect
       effect="copy_rotate"
       starting_point="205.58928,185.79267"
       origin="158.75,185.79267"
       id="path-effect13"
       is_visible="true"
       lpeversion="1.2"
       lpesatellites=""
       method="normal"
       num_copies="6"
       starting_angle="0"
       rotation_angle="60"
       gap="-0.01"
       copies_to_360="true"
       mirror_copies="false"
       split_items="false"
       link_styles="false" /></defs><sodipodi:namedview
     id="base"
     pagecolor="#ffffff"
     bordercolor="#666666"
     borderopacity="1.0"
     inkscape:pageopacity="0.0"
     inkscape:pageshadow="2"
     inkscape:zoom="1.979899"
     inkscape:cx="334.10795"
     inkscape:cy="243.44676"
     inkscape:document-units="px"
     inkscape:current-layer="layer1"
     inkscape:document-rotation="0"
     showgrid="true"
     units="px"
     inkscape:showpageshadow="2"
     inkscape:pagecheckerboard="0"
     inkscape:deskcolor="#d1d1d1"
     inkscape:window-width="1920"
     inkscape:window-height="1051"
     inkscape:window-x="-9"
     inkscape:window-y="-9"
     inkscape:window-maximized="1" /><metadata
     id="metadata5"><rdf:RDF><cc:Work
         rdf:about=""><dc:format>image/svg+xml</dc:format><dc:type
           rdf:resource="http://purl.org/dc/dcmitype/StillImage" /></cc:Work></rdf:RDF></metadata><g
     inkscape:label="Layer 1"
     inkscape:groupmode="layer"
     id="layer1"><rect
       style="fill:#1d2018;fill-opacity:1;stroke:none;stroke-width:26.4583;stroke-linecap:round"
       id="rect1"
       width="166.6875"
       height="132.29167"
       x="0"
       y="0"
       sodipodi:insensitive="true" /><g
       id="g5"
       transform="translate(0,-3.1750001)"><g
         inkscape:label="Layer 1"
         id="layer1-5"
         transform="matrix(0.1082575,0,0,0.1082575,102.16328,84.631096)"><path
           style="display:none;fill:#ffffff;stroke:none;stroke-width:26.4583;stroke-linecap:round;stroke-dasharray:none"
           d="m 158.75001,317.5 -52.91667,-26.45834 10e-6,-99.21874 h 105.83333 l -1e-5,99.21874 z"
           id="path3"
           sodipodi:nodetypes="cccccc" /><rect
           style="fill:none;stroke:#ffffff;stroke-width:26.4583;stroke-linecap:round;stroke-dasharray:none"
           id="rect12"
           width="238.12503"
           height="132.29167"
           x="39.687504"
           y="92.604164"
           ry="26.458336" /><rect
           style="fill:#ffffff;stroke:none;stroke-width:26.4583;stroke-linecap:round;stroke-dasharray:none"
           id="rect13"
           width="105.83333"
           height="132.29167"
           x="52.916668"
           y="92.604164"
           ry="0" /><rect
           style="fill:#ffffff;stroke:none;stroke-width:26.4583;stroke-linecap:round;stroke-dasharray:none"
           id="rect14"
           width="26.45833"
           height="79.375"
           x="198.43752"
           y="119.0625"
           ry="0" /></g><path
         id="path3-8"
         style="fill:#ffffff;stroke:none;stroke-width:3.43718;stroke-linecap:round;stroke-linejoin:miter;stroke-dasharray:none"
         d="m 38.745395,45.358096 -8.592941,14.883411 8.592941,14.883409 h 17.185879 l 8.59294,-14.883409 -8.59294,-14.883411 z m 2.863589,4.95985 h 11.458704 l 5.729355,9.923561 -5.729355,9.923559 H 41.608985 l -5.729357,-9.923559 z" /><path
         id="path6"
         style="fill:#ffffff;stroke:none;stroke-width:3.43718;stroke-linecap:round;stroke-linejoin:miter;stroke-dasharray:none"
         d="m 74.750813,66.145836 -1.761107,3.05033 5.070675,8.78275 H 67.91898 l -1.761107,3.05033 1.761107,3.05032 h 10.141401 l -5.070675,8.782764 1.761107,3.05032 h 3.522209 l 5.070731,-8.782704 5.07073,8.782704 h 3.522212 l 1.761101,-3.05032 -5.070672,-8.782764 h 10.141398 l 1.761098,-3.05032 -1.761098,-3.05033 H 88.627124 l 5.070672,-8.78275 -1.761101,-3.05033 h -3.522211 l -5.07073,8.7827 -5.070731,-8.7827 z" /><path
         id="path1"
         style="fill:#ffffff;stroke:none;stroke-width:3.43718;stroke-linecap:round;stroke-linejoin:miter;stroke-dasharray:none"
         d="m 48.090606,87.072376 -10.821285,16.723854 7.233508,-0.29108 2.08323,11.68931 10.821286,-16.72384 -7.233512,0.29108 z" /><path
         id="path2"
         style="fill:#ffffff;stroke:none;stroke-width:3.43718;stroke-linecap:round;stroke-linejoin:miter;stroke-dasharray:none"
         d="M 74.75081,24.57036 66.157871,39.45377 74.75081,54.337175 H 91.936695 L 100.52963,39.45377 91.936695,24.57036 Z m 2.86359,4.959851 h 11.458702 l 5.729365,9.923559 -5.729365,9.923556 H 77.614399 L 71.885043,39.45377 Z" /><path
         id="path4"
         style="fill:#ffffff;stroke:none;stroke-width:3.43718;stroke-linecap:round;stroke-linejoin:miter;stroke-dasharray:none"
         d="m 110.75622,45.358098 -8.59293,14.883409 8.59293,14.883409 h 17.18587 l 8.59295,-14.883409 -8.59295,-14.883409 z m 2.86359,4.959851 h 11.45871 l 5.72934,9.923558 -5.72934,9.923559 h -11.45871 l -5.72936,-9.923559 z" /></g></g></svg>
